<svg class="main-svg" xmlns="http://www.w3.org/2000/svg" xmlns:xlink="http://www.w3.org/1999/xlink" width="800" height="800" style="" viewBox="0 0 800 800"><rect x="0" y="0" width="800" height="800" style="fill: rgb(255, 255, 255); fill-opacity: 1;"/><defs id="defs-3d07f7"><g class="clips"/><g class="gradients"/><g class="patterns"/></defs><g class="bglayer"/><g class="layer-below"><g class="imagelayer"/><g class="shapelayer"/></g><g class="cartesianlayer"/><g class="polarlayer"/><g class="smithlayer"/><g class="ternarylayer"/><g class="geolayer"/><g class="funnelarealayer"/><g class="pielayer"/><g class="iciclelayer"/><g class="treemaplayer"/><g class="sunburstlayer"><g class="trace sunburst" stroke-linejoin="round" style="opacity: 1;"><g class="slice cursor-pointer"><path class="surface" d="M400,390L560,390A160,160 0,1,0 292.93910298258265,508.90317207638304L400,390A0,0 0,1,1 400,390Z" style="pointer-events: none; stroke-width: 1; fill: rgb(99, 102, 241); fill-opacity: 1; stroke: rgb(255, 255, 255); stroke-opacity: 1;"/><g class="slicetext"><text data-notex="1" class="slicetext" text-anchor="middle" x="0" y="0" style="font-family: 'Open Sans', verdana, arial, sans-serif; font-size: 14px; fill: rgb(255, 255, 255); fill-opacity: 1; font-weight: bold; white-space: pre;" transform="translate(373.4173730307159,330.2944422800099)rotate(-24)"><tspan class="line" dy="0em" x="0" y="0">Ganesha</tspan><tspan class="line" dy="1.3em" x="0" y="0">38</tspan></text></g></g><g class="slice cursor-pointer"><path class="surface" d="M400,390L292.93910298258265,508.90317207638304A160,160 0,0,0 560,390.00000000000006L400,390A0,0 0,0,1 400,390Z" style="pointer-events: none; stroke-width: 1; fill: rgb(255, 176, 0); fill-opacity: 1; stroke: rgb(255, 255, 255); stroke-opacity: 1;"/><g class="slicetext"><text data-notex="1" class="slicetext" text-anchor="middle" x="0" y="0" style="font-family: 'Open Sans', verdana, arial, sans-serif; font-size: 14px; fill: rgb(68, 68, 68); fill-opacity: 1; font-weight: bold; white-space: pre;" transform="translate(434.0090498672035,462.7840141472815)"><tspan class="line" dy="0em" x="0" y="0">Jatinangor</tspan><tspan class="line" dy="1.3em" x="0" y="0">22</tspan></text></g></g><g class="slice"><path class="surface" d="M560,390L720,390A320,320 0,1,0 81.75299348215253,423.449108245649L240.87649674107627,406.7245541228245A160,160 0,1,1 560,390Z" style="pointer-events: none; stroke-width: 1; fill: rgb(99, 102, 241); fill-opacity: 1; stroke: rgb(255, 255, 255); stroke-opacity: 1; opacity: 0.7;"/><g class="slicetext"><text data-notex="1" class="slicetext" text-anchor="middle" x="0" y="0" style="font-family: 'Open Sans', verdana, arial, sans-serif; font-size: 14px; fill: rgb(255, 255, 255); fill-opacity: 1; font-weight: bold; white-space: pre;" transform="translate(387.9296375325519,159.6837638881984)rotate(-3)"><tspan class="line" dy="0em" x="0" y="0">tingkat 2</tspan><tspan class="line" dy="1.3em" x="0" y="0">31</tspan></text></g></g><g class="slice"><path class="surface" d="M240.87649674107627,406.7245541228245L81.75299348215253,423.449108245649A320,320 0,0,0 141.1145618000167,578.0912807335912L270.5572809000083,484.0456403667956A160,160 0,0,1 240.87649674107627,406.7245541228245Z" style="pointer-events: none; stroke-width: 1; fill: rgb(99, 102, 241); fill-opacity: 1; stroke: rgb(255, 255, 255); stroke-opacity: 1; opacity: 0.7;"/><g class="slicetext"><text data-notex="1" class="slicetext" text-anchor="middle" x="0" y="0" style="font-family: 'Open Sans', verdana, arial, sans-serif; font-size: 14px; fill: rgb(255, 255, 255); fill-opacity: 1; font-weight: bold; white-space: pre;" transform="translate(162.67777514060873,477.49790433810807)"><tspan class="line" dy="0em" x="0" y="0">tingkat 3</tspan><tspan class="line" dy="1.3em" x="0" y="0">5</tspan></text></g></g><g class="slice"><path class="surface" d="M270.5572809000083,484.0456403667956L141.1145618000167,578.0912807335912A320,320 0,0,0 185.8782059651652,627.806344152766L292.9391029825826,508.903172076383A160,160 0,0,1 270.5572809000083,484.0456403667956Z" style="pointer-events: none; stroke-width: 1; fill: rgb(99, 102, 241); fill-opacity: 1; stroke: rgb(255, 255, 255); stroke-opacity: 1; opacity: 0.7;"/><g class="slicetext"><text data-notex="1" class="slicetext" text-anchor="middle" x="0" y="0" style="font-family: 'Open Sans', verdana, arial, sans-serif; font-size: 14px; fill: rgb(255, 255, 255); fill-opacity: 1; font-weight: bold; white-space: pre;" transform="translate(195.03833178124808,569.7019346124732)rotate(-42)"><tspan class="line" dy="0em" x="0" y="0">tingkat 4</tspan><tspan class="line" dy="1.3em" x="0" y="0">2</tspan></text></g></g><g class="slice"><path class="surface" d="M292.93910298258265,508.90317207638304L185.8782059651653,627.8063441527661A320,320 0,0,0 530.155725784256,682.3345464456323L465.077862892128,536.1672732228162A160,160 0,0,1 292.93910298258265,508.90317207638304Z" style="pointer-events: none; stroke-width: 1; fill: rgb(255, 176, 0); fill-opacity: 1; stroke: rgb(255, 255, 255); stroke-opacity: 1; opacity: 0.7;"/><g class="slicetext"><text data-notex="1" class="slicetext" text-anchor="middle" x="0" y="0" style="font-family: 'Open Sans', verdana, arial, sans-serif; font-size: 14px; fill: rgb(68, 68, 68); fill-opacity: 1; font-weight: bold; white-space: pre;" transform="translate(362.4557283903446,623.4436392428331)"><tspan class="line" dy="0em" x="0" y="0">tingkat 1</tspan><tspan class="line" dy="1.3em" x="0" y="0">11</tspan></text></g></g><g class="slice"><path class="surface" d="M465.077862892128,536.1672732228162L530.155725784256,682.3345464456323A320,320 0,0,0 713.0072322348178,456.5317410616832L556.5036161174089,423.2658705308416A160,160 0,0,1 465.077862892128,536.1672732228162Z" style="pointer-events: none; stroke-width: 1; fill: rgb(255, 176, 0); fill-opacity: 1; stroke: rgb(255, 255, 255); stroke-opacity: 1; opacity: 0.7;"/><g class="slicetext"><text data-notex="1" class="slicetext" text-anchor="middle" x="0" y="0" style="font-family: 'Open Sans', verdana, arial, sans-serif; font-size: 14px; fill: rgb(68, 68, 68); fill-opacity: 1; font-weight: bold; white-space: pre;" transform="translate(586.5150307496729,537.435331351961)"><tspan class="line" dy="0em" x="0" y="0">tingkat 2</tspan><tspan class="line" dy="1.3em" x="0" y="0">9</tspan></text></g></g><g class="slice"><path class="surface" d="M556.5036161174089,423.2658705308416L713.0072322348178,456.5317410616832A320,320 0,0,0 718.2470065178475,423.44910824564937L559.1235032589237,406.7245541228247A160,160 0,0,1 556.5036161174089,423.2658705308416Z" style="pointer-events: none; stroke-width: 1; fill: rgb(255, 176, 0); fill-opacity: 1; stroke: rgb(255, 255, 255); stroke-opacity: 1; opacity: 0.7;"/><g class="slicetext"><text data-notex="1" class="slicetext" text-anchor="middle" x="0" y="0" style="font-family: 'Open Sans', verdana, arial, sans-serif; font-size: 14px; fill: rgb(68, 68, 68); fill-opacity: 1; font-weight: bold; white-space: pre;" transform="translate(689.2910325383788,432.99374400566103)scale(0.774849316971204)rotate(9.000000000000057)"><tspan class="line" dy="0em" x="0" y="0">tingkat 3</tspan><tspan class="line" dy="1.3em" x="0" y="0">1</tspan></text></g></g><g class="slice"><path class="surface" d="M559.1235032589237,406.7245541228247L718.2470065178475,423.44910824564937A320,320 0,0,0 720,390.00000000000034L560,390.00000000000017A160,160 0,0,1 559.1235032589237,406.7245541228247Z" style="pointer-events: none; stroke-width: 1; fill: rgb(255, 176, 0); fill-opacity: 1; stroke: rgb(255, 255, 255); stroke-opacity: 1; opacity: 0.7;"/><g class="slicetext"><text data-notex="1" class="slicetext" text-anchor="middle" x="0" y="0" style="font-family: 'Open Sans', verdana, arial, sans-serif; font-size: 14px; fill: rgb(68, 68, 68); fill-opacity: 1; font-weight: bold; white-space: pre;" transform="translate(692.2003359841478,402.5190727091387)scale(0.774849316971204)rotate(3)"><tspan class="line" dy="0em" x="0" y="0">tingkat 4</tspan><tspan class="line" dy="1.3em" x="0" y="0">1</tspan></text></g></g></g></g><g class="glimages"/><defs id="topdefs-3d07f7"><g class="clips"/></defs><g class="layer-above"><g class="imagelayer"/><g class="shapelayer"/></g><g class="infolayer"><g class="g-gtitle"><text class="gtitle" x="40" y="30" text-anchor="start" dy="0em" style="font-family: 'Open Sans', verdana, arial, sans-serif; font-size: 17px; fill: rgb(42, 63, 95); opacity: 1; white-space: pre;"><tspan style="font-weight:bold">Komposisi Responden berdasarkan Asal Multikampus dan Tingkatan Akademik</tspan></text></g></g></svg>